<?xml version="1.0" standalone="no"?>
<!DOCTYPE svg PUBLIC "-//W3C//DTD SVG 20010904//EN"
 "http://www.w3.org/TR/2001/REC-SVG-20010904/DTD/svg10.dtd">
<svg version="1.0" xmlns="http://www.w3.org/2000/svg"
 width="980.000000pt" height="980.000000pt" viewBox="0 0 980.000000 980.000000"
 preserveAspectRatio="xMidYMid meet">
<metadata>
Created by potrace 1.11, written by Peter Selinger 2001-2013
</metadata>
<g transform="translate(0.000000,980.000000) scale(0.100000,-0.100000)"
fill="#000000" stroke="none">
<path d="M2340 9789 c-120 -12 -314 -54 -434 -93 -320 -106 -598 -278 -841
-521 -324 -324 -520 -710 -602 -1186 -16 -97 -18 -254 -21 -2429 -2 -1577 0
-2373 8 -2474 24 -338 121 -653 288 -934 280 -471 727 -815 1250 -962 256 -73
251 -73 1033 -77 l705 -4 387 -469 c402 -487 441 -527 561 -584 209 -99 449
-59 613 103 32 32 220 258 418 504 l360 446 636 0 c668 1 763 6 967 47 783
157 1429 775 1622 1553 68 271 64 145 67 2071 3 1118 0 1767 -6 1808 -19 119
-85 213 -186 262 -71 35 -189 40 -267 10 -74 -28 -149 -98 -183 -172 l-26 -56
1 -1725 c0 -1165 -3 -1757 -10 -1823 -38 -346 -180 -643 -425 -886 -192 -191
-437 -325 -720 -391 -87 -20 -116 -21 -937 -24 l-847 -4 -422 -520 c-232 -286
-426 -518 -429 -517 -4 2 -199 236 -434 520 l-426 517 -843 4 c-816 3 -845 4
-932 24 -631 148 -1079 647 -1145 1274 -14 134 -14 4617 1 4747 29 269 126
517 285 728 29 39 100 116 157 171 200 192 425 311 708 375 l104 23 2525 0
2525 0 105 -23 c284 -63 519 -191 725 -397 205 -204 342 -455 400 -733 8 -40
15 -89 15 -107 0 -97 87 -222 188 -272 50 -24 69 -28 147 -28 78 0 97 4 147
28 71 35 140 110 167 183 25 66 27 139 6 260 -163 940 -932 1656 -1884 1753
-126 13 -4972 13 -5101 0z"/>
<path d="M4795 7990 c-235 -43 -427 -208 -509 -439 -27 -78 -30 -97 -30 -206
0 -103 4 -132 28 -202 53 -163 178 -308 330 -382 218 -107 461 -90 663 47 112
76 205 201 250 336 23 69 27 98 27 201 0 106 -3 130 -28 200 -92 265 -318 437
-589 450 -50 2 -114 0 -142 -5z"/>
<path d="M4805 6000 c-83 -13 -136 -30 -216 -71 -187 -97 -316 -278 -349 -489
-8 -54 -10 -370 -8 -1150 l3 -1075 23 -70 c40 -118 81 -184 172 -276 70 -71
100 -94 170 -127 345 -165 733 -29 896 313 65 136 64 99 64 1278 0 930 -2
1078 -16 1145 -68 338 -401 573 -739 522z"/>
</g>
</svg>
